  <svg  viewBox="0 0 440 80" version="1.1" xmlns="http://www.w3.org/2000/svg" xmlns:xlink="http://www.w3.org/1999/xlink">
    <g stroke="none" stroke-width="1" fill="none" fill-rule="evenodd">
      <g transform="translate(2.000000, 0.000000)">
        <g transform="translate(27.000000, 2.000000)">
          <path d="M0.5,23.8032 C0.5,20.3941 2.3267,17.2463 5.2867,15.5549 L30.2867,1.2692 C33.2073,-0.39972 36.7927,-0.39972 39.7133,1.2692 L64.7133,15.5549 C67.6733,17.2463 69.5,20.3941 69.5,23.8032 L69.5,52.1968 C69.5,55.6059 67.6733,58.7537 64.7133,60.4451 L39.7133,74.7308 C36.7927,76.3997 33.2073,76.3997 30.2867,74.7308 L5.2867,60.4451 C2.3267,58.7537 0.5,55.6059 0.5,52.1968 L0.5,23.8032 Z" id="Path" stroke="#DB2777"></path>
          <path d="M3.3335,25.4322 C3.3335,21.8639 5.235,18.5659 8.3231,16.778 L29.9898,4.23411 C33.0891,2.43979 36.9113,2.43979 40.0105,4.23411 L61.6772,16.778 C64.7654,18.5659 66.6668,21.8639 66.6668,25.4322 L66.6668,50.5678 C66.6668,54.1362 64.7654,57.4342 61.6772,59.2221 L40.0105,71.766 C36.9113,73.5603 33.0891,73.5603 29.9898,71.766 L8.3231,59.2221 C5.235,57.4342 3.3335,54.1362 3.3335,50.5678 L3.3335,25.4322 Z" id="Path" fill="#F472B6" fill-rule="nonzero"></path>
          <path d="M35,41.1389 C35,37.2907 37.2081,33.784 40.6784,32.1209 L61.8928,21.9544 C64.1054,20.894 66.6667,22.5068 66.6667,24.9604 L66.6667,50.5678 C66.6667,54.1361 64.7652,57.4341 61.677,59.222 L40.0035,71.7699 C37.7812,73.0564 35,71.4529 35,68.8851 L35,56.3333 L35,41.1389 Z" id="Path" fill="#DB2777" fill-rule="nonzero"></path>
          <path d="M3.3335,24.9682 C3.3335,22.5127 5.8984,20.9 8.1113,21.9641 L29.3337,32.1689 C32.7974,33.8344 35.0002,37.3377 35.0002,41.1811 L35.0002,67.5624 C35.0002,67.5624 35.0274,69.9708 35.5885,70.7814 C36.0693,71.4761 36.8422,71.9564 37.5414,72.1064 C38.5513,72.3231 39.588,71.9915 39.588,71.9915 C36.7515,73.6455 33.2457,73.651 30.404,72.0058 L8.3231,59.2221 C5.235,57.4342 3.3335,54.1362 3.3335,50.5679 L3.3335,24.9682 Z" id="Path" fill="#EC4899" fill-rule="nonzero"></path>
        </g>
        <polyline stroke="currentColor" stroke-width="4" stroke-linecap="round" stroke-linejoin="round" points="18 50.4017877 0 39.5833023 18 28.4017877"></polyline>
        <polyline stroke="currentColor" stroke-width="4" stroke-linecap="round" stroke-linejoin="round" transform="translate(115.500000, 40.000000) rotate(180.000000) translate(-115.500000, -40.000000) " points="125 51 106 40.1815146 125 29"></polyline>
      </g>
    </g>
  </svg>