<?xml version="1.0" encoding="UTF-8"?>
<svg width="210px" height="232px" viewBox="0 0 210 232" version="1.1" xmlns="http://www.w3.org/2000/svg" xmlns:xlink="http://www.w3.org/1999/xlink">
    <title>favicon</title>
    <g id="Page-1" stroke="none" stroke-width="1" fill="none" fill-rule="evenodd">
        <g id="Group" transform="translate(1.000000, 2.000000)">
            <path d="M0.5,71.4096 C0.5,61.1823 5.9801,51.7389 14.8601,46.6647 L89.8601,3.8076 C98.6219,-1.19916 109.3781,-1.19916 118.1399,3.8076 L193.1399,46.6647 C202.0199,51.7389 207.5,61.1823 207.5,71.4096 L207.5,156.5904 C207.5,166.8177 202.0199,176.2611 193.1399,181.3353 L118.1399,224.1924 C109.3781,229.1991 98.6219,229.1991 89.8601,224.1924 L14.8601,181.3353 C5.9801,176.2611 0.5,166.8177 0.5,156.5904 L0.5,71.4096 Z" id="Path" stroke="#DB2777" stroke-width="3"></path>
            <path d="M9.0005,76.2966 C9.0005,65.5917 14.705,55.6977 23.9693,50.334 L88.9694,12.70233 C98.2673,7.31937 109.7339,7.31937 119.0315,12.70233 L184.0316,50.334 C193.2962,55.6977 199.0004,65.5917 199.0004,76.2966 L199.0004,151.7034 C199.0004,162.4086 193.2962,172.3026 184.0316,177.6663 L119.0315,215.298 C109.7339,220.6809 98.2673,220.6809 88.9694,215.298 L23.9693,177.6663 C14.705,172.3026 9.0005,162.4086 9.0005,151.7034 L9.0005,76.2966 Z" id="Path" fill="#F472B6" fill-rule="nonzero"></path>
            <path d="M104,123.4167 C104,111.8721 110.6243,101.352 121.0352,96.3627 L184.6784,65.8632 C191.3162,62.682 199.0001,67.5204 199.0001,74.8812 L199.0001,151.7034 C199.0001,162.4083 193.2956,172.3023 184.031,177.666 L119.0105,215.3097 C112.3436,219.1692 104,214.3587 104,206.6553 L104,168.9999 L104,123.4167 Z" id="Path" fill="#DB2777" fill-rule="nonzero"></path>
            <path d="M9.0005,74.9046 C9.0005,67.5381 16.6952,62.7 23.3339,65.8923 L87.0011,96.5067 C97.3922,101.5032 104.0006,112.0131 104.0006,123.5433 L104.0006,202.6872 C104.0006,202.6872 104.0822,209.9124 105.7655,212.3442 C107.2079,214.4283 109.5266,215.8692 111.6242,216.3192 C114.6539,216.9693 117.764,215.9745 117.764,215.9745 C109.2545,220.9365 98.7371,220.953 90.212,216.0174 L23.9693,177.6663 C14.705,172.3026 9.0005,162.4086 9.0005,151.7037 L9.0005,74.9046 Z" id="Path" fill="#EC4899" fill-rule="nonzero"></path>
        </g>
    </g>
</svg>